# xmcd CD database file
#
# Track frame offsets:
#	150
#	21088
#	41530
#	62072
#	78690
#	100281
#	120495
#	139555
#
# Disc length: 2119 seconds
#
# Revision: 0
# Processed by: cddbd v1.5.2PL0 Copyright (c) Steve Scherf et al.
# Submitted via: CDex 1.51
#
DISCID=63084508
DTITLE=Lawrence Marable Quartet - Tenorman
DYEAR=1956
DGENRE=Jazz
TTITLE0=The Devil and the Deep Blue Sea
TTITLE1=Easy Living
TTITLE2=Minor Meeting
TTITLE3=Airtight
TTITLE4=Willow Weep foe Me
TTITLE5=Three Fingers North
TTITLE6=Lover Man
TTITLE7=Marbles
EXTD=YEAR: 1956
EXTT0=
EXTT1=
EXTT2=
EXTT3=
EXTT4=
EXTT5=
EXTT6=
EXTT7=
PLAYORDER=
